<svg xmlns="http://www.w3.org/2000/svg" viewBox="0 0 18 14" aria-hidden="true">
  <path d="M1.00745 4.39539L1.01445 1.98789C1.01605 1.43049 1.47085 0.978289 2.02835 0.979989L6.39375 0.992589L6.39665 -0.007411L2.03125 -0.020011C0.920646 -0.023211 0.0176463 0.874489 0.0144463 1.98509L0.00744629 4.39539H1.00745Z"/>
  <path d="M17.0144 2.03431L17.0076 4.39541H18.0076L18.0144 2.03721C18.0176 0.926712 17.1199 0.0237125 16.0093 0.0205125L11.6439 0.0078125L11.641 1.00781L16.0064 1.02041C16.5638 1.02201 17.016 1.47681 17.0144 2.03431Z"/>
  <path d="M16.9925 9.60498L16.9855 12.0124C16.9839 12.5698 16.5291 13.022 15.9717 13.0204L11.6063 13.0078L11.6034 14.0078L15.9688 14.0204C17.0794 14.0236 17.9823 13.1259 17.9855 12.0153L17.9925 9.60498H16.9925Z"/>
  <path d="M0.985626 11.9661L0.992426 9.60498H-0.0074737L-0.0142737 11.9632C-0.0174737 13.0738 0.880226 13.9767 1.99083 13.98L6.35623 13.9926L6.35913 12.9926L1.99373 12.98C1.43633 12.9784 0.983926 12.5236 0.985626 11.9661Z"/>
</svg>